Coordinates
version=1
nRows=43
nColumns=12
inDegrees=yes

Units are S.I. units (second, meters, Newtons, ...)
Angles are in degrees

endheader
time	SC_y	SC_z	SC_x	AC_y	AC_z	AC_x	GH_y	GH_z	GH_yy	EL_x	PS_y
       0.0              -57.65         -4.704           36.7          63.67         0.6043          17.01          58.24           59.5          101.3           28.3          113.0
  0.005359              -57.65         -4.701           36.7          63.67         0.6026           17.0          58.23           59.5          101.3          28.31          113.0
   0.01072              -57.65         -4.698          36.71          63.67         0.6007           17.0          58.22           59.5          101.3          28.32          113.0
   0.01608              -57.64         -4.694          36.72          63.67         0.5988           17.0          58.22          59.49          101.2          28.32          113.0
   0.02144              -57.64          -4.69          36.72          63.67         0.5967           17.0          58.21          59.49          101.2          28.33          112.9
   0.02679              -57.64         -4.686          36.73          63.67         0.5945           17.0           58.2          59.48          101.2          28.34          112.9
   0.03215              -57.64         -4.681          36.74          63.67         0.5921           17.0          58.19          59.48          101.1          28.35          112.9
   0.03751              -57.64         -4.677          36.75          63.67         0.5896          16.99          58.17          59.47          101.1          28.36          112.9
   0.04287              -57.64         -4.672          36.76          63.67         0.5869          16.99          58.16          59.46          101.0          28.37          112.9
   0.04823              -57.64         -4.666          36.76          63.67          0.584          16.99          58.15          59.46          101.0          28.38          112.9
   0.05359              -57.63          -4.66          36.77          63.67         0.5809          16.99          58.13          59.45          100.9          28.39          112.8
   0.05895              -57.63         -4.654          36.79          63.67         0.5775          16.98          58.12          59.44          100.9          28.41          112.8
   0.06431              -57.63         -4.647           36.8          63.67         0.5739          16.98           58.1          59.43          100.8          28.42          112.8
   0.06967              -57.63          -4.64          36.81          63.66           0.57          16.98          58.09          59.43          100.7          28.43          112.8
   0.07502              -57.62         -4.632          36.82          63.66         0.5657          16.97          58.07          59.42          100.7          28.45          112.7
   0.08038              -57.62         -4.623          36.84          63.66         0.5611          16.97          58.05          59.41          100.6          28.47          112.7
   0.08574              -57.62         -4.614          36.85          63.66         0.5562          16.97          58.02          59.39          100.5          28.49          112.7
    0.0911              -57.61         -4.604          36.87          63.66         0.5507          16.96           58.0          59.38          100.4          28.51          112.6
   0.09646              -57.61         -4.593          36.89          63.66         0.5448          16.96          57.97          59.37          100.3          28.53          112.6
    0.1018              -57.61         -4.581          36.91          63.65         0.5383          16.95          57.94          59.35          100.2          28.55          112.5
    0.1072               -57.6         -4.567          36.94          63.65         0.5312          16.94          57.91          59.34          100.0          28.58          112.5
    0.1125               -57.6         -4.552          36.96          63.65         0.5233          16.94          57.88          59.32          99.89          28.61          112.4
    0.1179              -57.59         -4.536          36.99          63.65         0.5146          16.93          57.84           59.3          99.74          28.64          112.3
    0.1233              -57.58         -4.518          37.02          63.64          0.505          16.92          57.79          59.28          99.57          28.68          112.3
    0.1286              -57.58         -4.498          37.06          63.64         0.4943          16.91          57.75          59.25          99.38          28.72          112.2
     0.134              -57.57         -4.476          37.09          63.64         0.4824           16.9          57.69          59.23          99.16          28.77          112.1
    0.1393              -57.56         -4.451          37.14          63.63         0.4691          16.89          57.63          59.19          98.92          28.82          112.0
    0.1447              -57.55         -4.423          37.19          63.63         0.4541          16.88          57.56          59.16          98.65          28.87          111.9
      0.15              -57.54         -4.391          37.24          63.62         0.4371          16.86          57.49          59.12          98.35          28.94          111.8
    0.1554              -57.53         -4.355           37.3          63.62         0.4178          16.85           57.4          59.08          98.01          29.01          111.6
    0.1608              -57.51         -4.314          37.37          63.61         0.3958          16.83           57.3          59.03          97.61           29.1          111.5
    0.1661               -57.5         -4.266          37.46           63.6         0.3706          16.81          57.19          58.97          97.16          29.19          111.3
    0.1715              -57.48         -4.212          37.55          63.59         0.3414          16.78          57.06           58.9          96.64           29.3          111.1
    0.1768              -57.46         -4.148          37.66          63.58         0.3076          16.75           56.9          58.82          96.03          29.43          110.8
    0.1822              -57.43         -4.074          37.79          63.57          0.268          16.72          56.73          58.73          95.32          29.58          110.6
    0.1876               -57.4         -3.987          37.94          63.56         0.2213          16.68          56.51          58.63          94.49          29.76          110.2
    0.1929              -57.37         -3.883          38.12          63.54         0.1658          16.63          56.26           58.5          93.49          29.97          109.8
    0.1983              -57.32         -3.758          38.34          63.52        0.09924          16.58          55.96          58.35           92.3          30.22          109.3
    0.2036              -57.27         -3.607           38.6          63.49        0.01876          16.51           55.6          58.16          90.86          30.53          108.7
     0.209              -57.21         -3.423          38.92          63.46       -0.07957          16.42          55.16          57.94           89.1           30.9          108.0
    0.2144              -57.13         -3.195          39.31          63.42        -0.2009          16.32          54.61          57.66          86.93          31.36          107.1
    0.2197              -57.03         -2.912           39.8          63.38        -0.3522          16.19          53.93          57.31          84.22          31.94          106.0
    0.2251              -56.91         -2.555          40.42          63.32        -0.5429          16.03          53.07          56.87          80.81          32.66          104.6
